<svg xmlns="http://www.w3.org/2000/svg" viewBox="0 0 560 315" fill="none" stroke="#0a0a0a" stroke-width="1" shape-rendering="geometricPrecision" vector-effect="non-scaling-stroke">
  <rect x="60" y="55" width="440" height="205" stroke-dasharray="1 4"/>
  <line x1="60" y1="123" x2="500" y2="123" stroke-dasharray="1 4"/>
  <line x1="60" y1="192" x2="500" y2="192" stroke-dasharray="1 4"/>
  <rect x="95" y="138" width="90" height="48" stroke-dasharray="1 4"/>
  <rect x="235" y="138" width="90" height="48" stroke-dasharray="1 4"/>
  <rect x="375" y="138" width="90" height="48" stroke-dasharray="1 4"/>
  <path d="M 140 162 L 235 162"/>
  <path d="M 325 162 L 375 162"/>
  <circle cx="140" cy="162" r="4" fill="#0a0a0a" stroke="none"/>
  <circle cx="280" cy="162" r="4" fill="#0a0a0a" stroke="none"/>
  <circle cx="420" cy="162" r="4" fill="#0a0a0a" stroke="none"/>
  <circle cx="280" cy="162" r="42"/>
  <line x1="311" y1="193" x2="338" y2="220"/>
  <path d="M 120 95 Q 200 88 280 100 T 440 92"/>
  <circle cx="120" cy="95" r="4" fill="#0a0a0a" stroke="none"/>
  <circle cx="280" cy="100" r="4" fill="#0a0a0a" stroke="none"/>
  <circle cx="440" cy="92" r="4" fill="#0a0a0a" stroke="none"/>
</svg>
