<svg xmlns="http://www.w3.org/2000/svg" viewBox="0 0 560 315" fill="none" stroke="#0a0a0a" stroke-width="1" shape-rendering="geometricPrecision" vector-effect="non-scaling-stroke">
  <rect x="70" y="55" width="220" height="205" stroke-dasharray="1 4"/>
  <line x1="95" y1="90" x2="265" y2="90" stroke-dasharray="1 4"/>
  <line x1="95" y1="115" x2="265" y2="115" stroke-dasharray="1 4"/>
  <line x1="95" y1="140" x2="245" y2="140" stroke-dasharray="1 4"/>
  <line x1="95" y1="165" x2="265" y2="165" stroke-dasharray="1 4"/>
  <line x1="95" y1="190" x2="230" y2="190" stroke-dasharray="1 4"/>
  <line x1="95" y1="215" x2="255" y2="215" stroke-dasharray="1 4"/>
  <line x1="95" y1="240" x2="210" y2="240" stroke-dasharray="1 4"/>
  <path d="M 300 157 L 340 157"/>
  <polygon points="340,157 332,152 332,162" fill="#0a0a0a" stroke="none"/>
  <rect x="350" y="100" width="140" height="90" rx="8" stroke-dasharray="1 4"/>
  <line x1="370" y1="130" x2="470" y2="130" stroke-dasharray="1 4"/>
  <line x1="370" y1="150" x2="450" y2="150" stroke-dasharray="1 4"/>
  <line x1="370" y1="170" x2="460" y2="170" stroke-dasharray="1 4"/>
  <circle cx="420" cy="75" r="22"/>
  <line x1="408" y1="75" x2="432" y2="75"/>
  <line x1="420" y1="63" x2="420" y2="87"/>
</svg>
