<svg xmlns="http://www.w3.org/2000/svg" viewBox="0 0 560 315" fill="none" stroke="#0a0a0a" stroke-width="1" shape-rendering="geometricPrecision" vector-effect="non-scaling-stroke">
  <rect x="60" y="55" width="440" height="205" stroke-dasharray="1 4"/>
  <rect x="98" y="108" width="72" height="48" stroke-dasharray="1 4"/>
  <rect x="244" y="108" width="72" height="48"/>
  <rect x="390" y="108" width="72" height="48" stroke-dasharray="1 4"/>
  <path d="M 170 132 L 244 132"/>
  <path d="M 316 132 L 390 132"/>
  <circle cx="170" cy="132" r="4" fill="#0a0a0a" stroke="none"/>
  <circle cx="280" cy="132" r="4" fill="#0a0a0a" stroke="none"/>
  <circle cx="390" cy="132" r="4" fill="#0a0a0a" stroke="none"/>
  <path d="M 448 120 L 468 132 L 448 144 Z" stroke-dasharray="1 4"/>
  <path d="M 100 198 L 140 178 L 180 208 L 220 168 L 260 188 L 300 158 L 340 198 L 380 172 L 420 192 L 460 182"/>
  <circle cx="100" cy="198" r="4" fill="#0a0a0a" stroke="none"/>
  <circle cx="260" cy="188" r="4" fill="#0a0a0a" stroke="none"/>
  <circle cx="420" cy="192" r="4" fill="#0a0a0a" stroke="none"/>
  <line x1="60" y1="228" x2="500" y2="228" stroke-dasharray="1 4"/>
  <line x1="280" y1="228" x2="280" y2="248"/>
  <circle cx="280" cy="228" r="4" fill="#0a0a0a" stroke="none"/>
</svg>
