<svg xmlns="http://www.w3.org/2000/svg" viewBox="0 0 560 315" fill="none" stroke="#0a0a0a" stroke-width="1" shape-rendering="geometricPrecision" vector-effect="non-scaling-stroke">
  <rect x="60" y="55" width="440" height="205" stroke-dasharray="1 4"/>
  <rect x="120" y="98" width="140" height="100" stroke-dasharray="1 4"/>
  <line x1="120" y1="128" x2="260" y2="128"/>
  <line x1="148" y1="148" x2="232" y2="148" stroke-dasharray="1 4"/>
  <line x1="148" y1="168" x2="208" y2="168" stroke-dasharray="1 4"/>
  <circle cx="148" cy="148" r="4" fill="#0a0a0a" stroke="none"/>
  <circle cx="148" cy="168" r="4" fill="#0a0a0a" stroke="none"/>
  <rect x="300" y="108" width="180" height="80" stroke="#7C3AED"/>
  <path d="M 320 148 L 360 128 L 400 158 L 440 118 L 460 148" stroke="#7C3AED"/>
  <circle cx="320" cy="148" r="4" fill="#7C3AED" stroke="none"/>
  <circle cx="360" cy="128" r="4" fill="#7C3AED" stroke="none"/>
  <circle cx="400" cy="158" r="4" fill="#7C3AED" stroke="none"/>
  <circle cx="440" cy="118" r="4" fill="#7C3AED" stroke="none"/>
  <circle cx="190" cy="218" r="10" stroke="#7C3AED"/>
  <circle cx="280" cy="218" r="10" stroke="#7C3AED"/>
  <circle cx="370" cy="218" r="10" stroke="#7C3AED"/>
  <path d="M 190 208 L 190 198" stroke="#7C3AED"/>
  <path d="M 280 208 L 280 198" stroke="#7C3AED"/>
  <path d="M 370 208 L 370 198" stroke="#7C3AED"/>
  <path d="M 260 148 L 300 148"/>
  <circle cx="260" cy="148" r="4" fill="#0a0a0a" stroke="none"/>
  <circle cx="300" cy="148" r="4" fill="#7C3AED" stroke="none"/>
</svg>
