<svg width="748" height="751" viewBox="0 0 748 751" fill="none" xmlns="http://www.w3.org/2000/svg">
<path d="M433.231 507.266C431.904 521.19 427.977 534.655 423.548 547.878C422.371 551.384 420.684 554.768 419.203 558.153C417.795 561.38 416.515 564.735 414.854 567.838C397.184 600.859 366.553 628.446 333.044 644.833C301.497 660.264 266.805 660.979 233.834 649.476C173.225 628.332 130.419 579.843 103.328 523.163C88.2229 491.561 75.9469 448.774 72.1596 413.894C70.195 395.797 70.14 377.502 70.4682 359.318C70.6798 347.59 70.8536 333.402 72.3371 321.967C75.7574 297.27 81.7161 272.992 90.119 249.517C131.678 133.131 230.998 55.2691 357.056 61.2929C367.928 61.8125 393.118 64.0556 403.165 67.7112C403.718 68.72 403.619 68.1806 403.344 69.4013C401.537 71.6642 381.498 81.6711 377.23 84.3362C365.444 91.7021 354.341 101.823 343.661 109.864C338.867 113.472 318.16 111.422 311.175 112.381C302.543 113.567 292.251 114.607 283.589 117.054C268.528 120.626 256.968 125.999 243.762 133.808C221.127 146.949 201.138 164.192 184.816 184.654C177.431 193.941 171.493 203.231 165.516 213.459C149.445 241.426 137.665 271.649 130.571 303.116C129.332 308.548 127.934 314.342 127.093 319.825C126.492 323.417 126.923 327.233 126.453 330.807C123.57 352.696 125.548 375.533 125.112 397.623C125.186 400.711 126.086 404.015 126.249 407.055C127.317 426.988 133.065 447.293 139.095 466.189C148.237 494.835 161.41 521.765 179.322 545.957C183.433 551.508 189.214 556.664 193.756 561.908C203.064 571.908 214.425 581.006 226.106 588.12C242.212 597.152 259.887 604.313 278.617 603.297C281.048 603.25 283.576 603.312 285.991 603.052C322.564 599.099 356.472 574.413 368.907 539.363C370.077 536.067 372.288 532.55 373.384 529.136C378.466 513.28 381.645 497.094 380.978 480.361C381.704 446.372 372.057 411.869 354.816 382.574C342.034 360.851 329.954 338.919 321.659 314.909C319.9 309.817 318.42 304.08 316.829 298.829C316.561 297.187 316.218 295.476 315.916 293.833C315.221 289.522 313.865 283.511 313.667 279.353C311.925 242.82 312.7 210.898 327.525 176.63C342.131 142.869 366.555 119.894 396.968 100.688C443.564 71.2623 500.639 79.2974 544.06 110.081C563.383 123.789 580.459 140.419 594.671 159.375C604.091 171.883 612.088 185.182 620.074 198.567C621.804 201.959 623.711 205.927 625.658 209.146C642.297 241.12 652.513 275.811 658.372 311.098C661.188 328.049 663.164 342.706 662.152 360.045C661.808 372.094 662.611 384.561 661.881 396.633C661.767 399.633 660.444 404.73 660 407.99C656.656 432.617 652.443 458.092 644.673 481.744C641.879 490.244 638.084 499.65 634.649 507.908C612.707 560.625 575.256 605.545 526.06 634.83C521.653 637.455 517.62 640.004 513.007 642.362C482.038 658.533 448.103 668.24 413.27 670.895C408.03 671.258 402.6 671.071 397.371 671.276C379.394 671.976 361.646 670.902 343.802 669.01C343.41 668.97 342.792 668.475 342.493 668.218C342.2 665.006 353.057 661.452 355.903 659.773C364.627 654.745 372.662 649.274 380.846 643.502C386.195 639.733 404.272 621.841 409.13 621.148C430.822 618.061 448.804 617.349 469.454 608.912C499.745 596.532 524.403 577.768 544.801 552.678C573.654 516.815 593.241 474.403 601.832 429.178C608.219 395.111 609.213 343.967 602.661 309.973C592.544 257.51 566.731 200.533 527.006 164.233C458.682 101.802 369.692 154.158 366.931 239.465C364.23 301.009 374.55 307.745 402.948 357.882C423.526 394.29 434.452 435.353 434.694 477.175C434.716 484.102 434.709 491.41 433.946 498.293L433.231 507.266Z" fill="#D8D7CE"/>
</svg>
