<svg xmlns="http://www.w3.org/2000/svg" viewBox="0 0 560 315" fill="none" stroke="#0a0a0a" stroke-width="1" shape-rendering="geometricPrecision" vector-effect="non-scaling-stroke">
  <rect x="60" y="55" width="440" height="205" stroke-dasharray="1 4"/>
  <rect x="120" y="98" width="96" height="120" stroke-dasharray="1 4"/>
  <rect x="232" y="98" width="96" height="120" stroke="#7C3AED"/>
  <rect x="344" y="98" width="96" height="120" stroke-dasharray="1 4"/>
  <rect x="136" y="118" width="64" height="8" stroke-dasharray="1 4"/>
  <rect x="136" y="136" width="48" height="8" stroke-dasharray="1 4"/>
  <rect x="136" y="168" width="56" height="16" stroke-dasharray="1 4"/>
  <rect x="248" y="118" width="64" height="8" stroke="#7C3AED"/>
  <rect x="248" y="136" width="48" height="8" stroke="#7C3AED"/>
  <rect x="248" y="168" width="56" height="16" stroke="#7C3AED"/>
  <rect x="360" y="118" width="64" height="8" stroke-dasharray="1 4"/>
  <rect x="360" y="136" width="48" height="8" stroke-dasharray="1 4"/>
  <rect x="360" y="168" width="56" height="16" stroke-dasharray="1 4"/>
  <path d="M 216 158 L 232 158"/>
  <path d="M 328 158 L 344 158"/>
  <circle cx="216" cy="158" r="4" fill="#0a0a0a" stroke="none"/>
  <circle cx="280" cy="158" r="4" fill="#7C3AED" stroke="none"/>
  <circle cx="344" cy="158" r="4" fill="#0a0a0a" stroke="none"/>
  <rect x="180" y="78" width="200" height="28" rx="14" stroke-dasharray="1 4"/>
  <path d="M 196 92 L 364 92" stroke-dasharray="1 4"/>
</svg>
